<?xml version="1.0" encoding="UTF-8"?>
<!-- Created with Inkscape (http://www.inkscape.org/) -->
<svg width="6771" height="1917" version="1.1" viewBox="0 0 6771 1917" xmlns="http://www.w3.org/2000/svg" xmlns:cc="http://creativecommons.org/ns#" xmlns:dc="http://purl.org/dc/elements/1.1/" xmlns:rdf="http://www.w3.org/1999/02/22-rdf-syntax-ns#">
 <metadata>
  <rdf:RDF>
   <cc:Work rdf:about="">
    <dc:format>image/svg+xml</dc:format>
    <dc:type rdf:resource="http://purl.org/dc/dcmitype/StillImage"/>
    <dc:title/>
   </cc:Work>
  </rdf:RDF>
 </metadata>
 <path d="m5.2012e-8 958.5v-958.5h6771v1917h-6771z" fill="#fdfdfd"/>
 <path d="m5.2012e-8 958.5v-958.5h6771v1917h-6771zm1320 354v-80.5h-227c-124.85 0-227-0.2681-227-0.5957s108.22-148.45 240.5-329.16l240.5-328.56v-51.682h-712v163l201.02 0.25244 201.02 0.25244-240.02 328.76-240.02 328.76v49.989h763zm684-6.5v-87h-402v-189h335v-173h-335v-161h406v-174h-579v871h575zm507-261.5v-348.5h241v-174h-657v174h243v697h173zm1026 325.95v-22.554l-195.25-412.95-195.25-412.95h-50.226l-210.14 412.9-210.14 412.9v45.207h861zm-600.82-152.49c0.8301-2.4902 180.37-353.91 180.82-353.92 0.5572-0.0186 166.02 353.03 166.01 354.21 0 0.4125-78.119 0.75-173.59 0.75-119.71 0-173.48-0.3227-173.24-1.0398z" fill="#a2a09f"/>
 <path d="m5.2012e-8 958.5v-958.5h6771v1917h-6771zm1320 353.5v-81h-226.5c-124.58 0-226.5-0.239-226.5-0.531 0-0.2921 108.22-148.38 240.5-329.09l240.5-328.56v-50.815h-713v163l200.83 0.25244 200.83 0.25244-239.83 328.5-239.83 328.5-2e-3 25.25-2e-3 25.25h763zm685-6v-87h-403v-189h335v-174h-335v-160h406v-174h-580v871h577zm506-261.5v-348.5h241v-174h-657v174h242v697h174zm1026 325.55v-22.948l-194.95-412.3-194.95-412.3h-51.436l-209.77 412-209.77 412-0.061 23.25-0.061 23.25h861v-22.948zm-579.3-193.85c85.923-168.68 158.88-311.19 159.32-311.2 0.4142-2e-3 164.57 349.52 165.81 353.05 0.2088 0.5927-64.549 0.9463-173.3 0.9463h-173.64z" fill="#5f5c5c"/>
 <path d="m5.2012e-8 958.5v-958.5h6771v1917h-6771zm1321 353.5v-80.998l-227.08-0.2521-227.08-0.2522 240.58-328.67 240.58-328.67v-51.162h-713v163h200.5c110.28 0 200.5 0.24185 200.5 0.53744 0 0.2956-107.89 148.23-239.75 328.75l-239.75 328.21-0.28292 25.25-0.28293 25.25h765.07zm684-5.9998v-86.998l-201.25-0.2525-201.25-0.2524v-188l167.75-0.2529 167.75-0.2529v-173.99h-336.01l0.256-79.75 0.256-79.75 202.75-0.25242 202.75-0.25242v-174h-580v871h577zm506.25-261.25 0.2514-348.25 120.25-0.25403 120.25-0.25403v-173.99h-657v174h242v697h174zm1025.7 325-0.01-23.25-194.81-412-194.81-412-25.929-0.23665l-25.926-0.23665-209.75 412.28-209.75 412.28v46.417h861l-0.01-23.25zm-599.99-151.63c0-1.1238 178.58-351.11 179.68-352.15 0.6071-0.57131 154.18 325.28 164.53 349.1l1.709 3.9332h-172.96c-99.545 0-172.96-0.3753-172.96-0.8842z" fill="#1b875c"/>
 <path d="m5.2012e-8 958.5v-958.5h6771v1917h-6771zm4265.7 379c126.72-243.65 234.67-451.21 239.89-461.25l9.4851-18.25-86.769 0.0291-86.769 0.0291-81.369 147.49c-44.753 81.117-81.698 147.69-82.1 147.94-0.4019 0.2483-40.283-66.133-88.625-147.51l-87.894-147.97h-178.27l6.8307 13.25c3.7569 7.2875 62.354 120.06 130.22 250.61l123.39 237.36-110.84 210.6c-60.96 115.83-110.84 210.73-110.84 210.9 0 0.166 38.984 0.1868 86.631 0.046l86.631-0.2555 230.4-443zm1302.3 67.947c37.713-4.332 74.55-15.435 108-32.553 16.316-8.3496 33.591-19.099 33.256-20.694-0.1341-0.6389-15.606-28.605-34.383-62.148l-34.139-60.986-6.413 5.8764c-12.145 11.129-28.96 21.054-45.634 26.936-60.81 21.453-134.19-1.973-175.05-55.879-36.483-48.141-36.739-113.28-0.6413-163.26 6.5017-9.0022 22.205-24.265 32.352-31.443 59.294-41.949 139.42-39.753 188.35 5.1641l7.2023 6.6109 1.4352-2.2875c0.7893-1.2581 16.834-29.409 35.654-62.557 28.836-50.787 34.02-60.51 32.951-61.797-2.1095-2.5419-24.637-16.123-37.945-22.876-84.953-43.108-186.33-44.237-271.78-3.0275-31.155 15.026-54.289 31.06-78.591 54.47-43.235 41.649-71.515 95.292-81.715 155-3.041 17.802-3.8058 56.091-1.498 75 9.2875 76.096 47.588 142.77 109.28 190.24 43.399 33.391 97.808 54.853 153.8 60.667 14.175 1.4719 50.943 1.2157 65.5-0.4564zm472.2 0.066c66.835-8.7973 126.25-48.89 153.99-103.9 5.4613-10.834 11.409-29.114 13.375-41.112 2.2-13.422 1.5017-38.877-1.4475-52.766-10.432-49.128-42.315-87.227-95.228-113.79-19.181-9.6309-36.895-15.89-94.572-33.418-44.942-13.658-62.08-23.899-66.846-39.945-1.8349-6.1786-1.8256-10.211 0.044-19.076 4.0219-19.071 16.434-32.125 35.192-37.011 8.4875-2.2107 27.226-1.949 39.496 0.55156 26.984 5.499 57.924 19.725 92.663 42.607 7.8993 5.2032 14.494 9.3234 14.655 9.1561 1.0508-1.0911 71.501-112.11 71.27-112.31-2.4132-2.1016-36.701-20.847-50.288-27.493-34.612-16.93-62.22-25.768-96.5-30.894-33.046-4.9412-81.797-5.4649-106-1.1387-41.787 7.4692-78.073 25.348-104.59 51.533-11.422 11.28-18.844 20.862-26.316 33.974-15.288 26.829-21.75 60.088-18.075 93.026 3.8615 34.603 14.797 58.458 36.921 80.538 13.067 13.042 29.491 24.263 50.517 34.514 23.558 11.486 43.762 19.014 95.042 35.412 31.914 10.206 45.544 16.94 56.589 27.962 8.1541 8.137 12.542 16.771 13.878 27.31 3.2353 25.518-10.592 44.466-37.466 51.343-10.32 2.6407-31.648 2.4104-45.5-0.4915-23.202-4.8607-45.941-14.599-67.566-28.937-13.578-9.0029-31.005-23.572-40.134-33.552-3.41-3.7277-6.6017-6.5293-7.0928-6.2258s-22.822 22.821-49.624 50.038l-48.731 49.486 7.2013 6.8018c51.598 48.735 123.86 79.703 204.65 87.706 19.315 1.9133 56.352 1.97 70.499 0.1079zm-1203.2-218.01v-208.5h121v-124h-121v-155h-145v155h-121v124h121v417h145zm-3516 124.5v-80.998l-227.08-0.2521-227.08-0.2522 240.58-328.67 240.58-328.67v-51.162h-713v163h200.5c110.28 0 200.5 0.24185 200.5 0.53744 0 0.2956-107.89 148.23-239.75 328.75l-239.75 328.21-0.28292 25.25-0.28293 25.25h765.07zm684-5.9998v-86.998l-201.25-0.2525-201.25-0.2524v-188l167.75-0.2529 167.75-0.2529v-173.99h-336.01l0.256-79.75 0.256-79.75 202.75-0.25242 202.75-0.25242v-174h-580v871h577zm506.25-261.25 0.2514-348.25 120.25-0.25403 120.25-0.25403v-173.99h-657v174h242v697h174zm1025.7 325-0.01-23.25-194.81-412-194.81-412-25.929-0.23665l-25.926-0.23665-209.75 412.28-209.75 412.28v46.417h861l-0.01-23.25zm-599.99-151.63c0-1.1238 178.58-351.11 179.68-352.15 0.6071-0.57131 154.18 325.28 164.53 349.1l1.709 3.9332h-172.96c-99.545 0-172.96-0.3753-172.96-0.8842zm834-261.62v-435.5h-158v871h158zm1395 167v-268.5h-157v537h157zm0-327.98c0-0.95867-77.419-139.52-77.953-139.51-0.4665 2e-3 -76.943 136.6-77.88 139.11-0.1933 0.51661 32.478 0.89103 77.75 0.89103 42.946 0 78.083-0.2182 78.083-0.4849z" fill="#216d4e"/>
 <path d="m5.2012e-8 958.5v-958.5h6771v1917h-6771zm4275 361.8c131.72-253.34 239.65-461 239.83-461.46 0.1834-0.46003-38.766-0.83642-86.554-0.83642h-86.887l-80.946 146.63c-44.52 80.648-81.396 147.23-81.946 147.96-0.74 0.9825-23.84-37.141-88.85-146.63l-87.85-147.96h-178.93l8.991 17.25c68.637 131.68 251.14 483.39 251.14 483.98 0 0.4296-49.548 94.917-110.11 209.97s-110.33 209.78-110.61 210.49c-0.4088 1.0653 15.369 1.2961 86.357 1.2632l86.857-0.04 239.5-460.62zm1278.5 86.653c39.714-2.7012 76.617-12.199 113.51-29.214 13.674-6.3062 43-23.248 43-24.842 0-0.5328-33.5-60.664-61.672-110.7l-7.4902-13.303-4.1691 3.821c-36.381 33.343-86.601 44.809-136.65 31.2-54.025-14.692-97.18-56.785-110.01-107.3-4.7416-18.671-4.7552-43.518-0.035-63.282 11.67-48.862 48.376-87.177 99.498-103.86 16.382-5.3458 31.143-7.6606 49.522-7.7658 21.872-0.1251 39.794 3.3401 58.104 11.234 14.571 6.2821 31.635 17.942 40.536 27.698l3.1403 3.4422 19.779-34.79c10.879-19.134 27.099-47.615 36.045-63.29l16.265-28.5-2.1849-1.7653c-2.8409-2.2953-24.331-15.436-32.685-19.986-11.015-5.9997-28.372-13.456-43.44-18.661-98.687-34.09-208.79-15.813-289.85 48.112-14.155 11.163-40.523 37.989-50.916 51.8-61.809 82.139-73.66 186.33-31.852 280.03 42.737 95.774 141.16 162.49 250.61 169.88 17.417 1.1749 24.222 1.1825 40.942 0.045zm489.46-1.5377c65.356-9.6952 122.95-48.649 149.94-101.41 13.252-25.907 17.971-48.096 16.064-75.537-4.3812-63.034-43.485-112.06-113.11-141.79-11.739-5.0142-38.685-14.028-72.345-24.201-37.669-11.385-53.898-18.411-64.133-27.764-7.9246-7.2426-10.773-13.271-10.728-22.705 0.088-18.232 10.073-35.703 24.537-42.931 19.308-9.6481 48.542-7.6841 81.522 5.4766 20.571 8.2091 38.974 18.1 61.796 33.213 7.6968 5.0971 14.447 9.0771 15 8.8445 0.5533-0.2326 16.946-25.49 36.43-56.126 27.897-43.869 35.121-55.891 34-56.588-19.129-11.892-54.686-30.536-71.424-37.45-41.434-17.117-82.767-24.633-136-24.729-23.567-0.0425-33.18 0.78271-51.438 4.4153-23.493 4.6742-51.742 16.022-70.787 28.436-36.725 23.938-60.564 57.819-69.482 98.751-2.9762 13.66-3.2358 47.862-0.4759 62.688 9.8871 53.117 43.7 87.41 113.18 114.79 17.047 6.7179 31.269 11.627 67.114 23.166 37.391 12.036 54.626 21.572 63.554 35.163 6.1035 9.2905 7.3317 13.877 7.3317 27.379 0 11.433-0.1516 12.32-3.2093 18.775-6.0382 12.748-19.005 21.931-35.79 25.346-11.88 2.4176-35.443 1.4524-49.258-2.0177-35.684-8.9633-70.029-29.183-98.582-58.037l-9.9613-10.066-49.35 49.931c-27.143 27.462-49.35 50.269-49.35 50.681 0 1.3188 20.114 18.781 31.713 27.531 35.352 26.672 77.401 46.159 123.99 57.466 24.972 6.0598 48.824 9.3961 80.794 11.301 11.239 0.6696 37.869-0.4286 48.449-1.9981zm-1205.9-217.91v-208.5h121v-125h-121v-154h-145v154h-121v125h121v417h145zm-3516 124.5v-80.998l-227.08-0.2521-227.08-0.2522 240.58-328.67 240.58-328.67v-51.162h-713v163h200.5c110.28 0 200.5 0.24185 200.5 0.53744 0 0.2956-107.89 148.23-239.75 328.75l-239.75 328.21-0.28292 25.25-0.28293 25.25h765.07zm684-5.9998v-86.998l-201.25-0.2525-201.25-0.2524v-188l167.75-0.2529 167.75-0.2529v-173.99h-336.01l0.256-79.75 0.256-79.75 202.75-0.25242 202.75-0.25242v-174h-580v871h577zm506.25-261.25 0.2514-348.25 120.25-0.25403 120.25-0.25403v-173.99h-657v174h242v697h174zm1025.7 325-0.01-23.25-194.81-412-194.81-412-25.929-0.23665l-25.926-0.23665-209.75 412.28-209.75 412.28v46.417h861l-0.01-23.25zm-599.99-151.63c0-1.1238 178.58-351.11 179.68-352.15 0.6071-0.57131 154.18 325.28 164.53 349.1l1.709 3.9332h-172.96c-99.545 0-172.96-0.3753-172.96-0.8842zm834-261.62v-435.5h-158v871h158zm1395.8 166.75-0.2518-268.75-78.75-0.25606-78.75-0.25606v538.01h158zm-30.975-383c-17.089-30.662-34.789-62.435-39.332-70.605-8.0685-14.509-8.2955-14.8-9.7513-12.5-2.4046 3.7992-75.659 135.6-76.312 137.3-0.5345 1.3929 7.3995 1.5507 77.936 1.5507h78.531z" fill="#234637"/>
 <path d="m5.2012e-8 958.5v-958.5h6771v1917h-6771zm4275.1 362c131.89-253.55 239.81-461.56 239.82-462.25 0.021-0.99057-17.923-1.25-86.461-1.25h-86.487l-2.319 3.75c-1.2754 2.0625-37.8 68.1-81.166 146.75-43.366 78.65-79.368 143.57-80.006 144.28-0.9031 0.9946-20.566-31.397-89.083-146.75l-87.924-148.03h-89.264c-55.012 0-89.264 0.36051-89.264 0.93953 0 0.51674 58.51 113.52 130.02 251.11l130.02 250.17-111.02 210.94c-61.062 116.02-111.02 211.14-111.02 211.4 0 0.2526 39.229 0.3442 87.176 0.2037l87.176-0.2555zm1297.4 85.028c44.795-5.9688 85.886-20.41 124.87-43.883 6.5262-3.93 12.082-7.6962 12.347-8.3694 0.3419-0.8693-65.612-120.68-68.355-124.17-0.169-0.2152-2.3602 1.3598-4.8692 3.5-22.647 19.318-45.291 30.349-71.415 34.789-13.311 2.2625-34.928 2.106-49.335-0.357-31.903-5.4541-61.885-20.595-84.996-42.923-21.343-20.62-33.397-40.806-40.376-67.618-2.6887-10.329-2.8636-12.22-2.8652-31 0-15.378 0.407-21.893 1.7669-28.192 3.8733-17.94 10.494-33.774 20.186-48.278 21.358-31.962 54.512-53.934 96.045-63.653 11.151-2.6096 13.52-2.8106 33.5-2.8424 17.338-0.0276 23.135 0.32507 29.947 1.8219 25.537 5.6112 47.14 16.576 64.382 32.678l7.5614 7.0616 1.4527-2.298c2.2916-3.625 70.656-124.09 70.656-124.5 0-1.5072-27.834-18.08-42.5-25.306-25.295-12.462-46.8-20.026-72.16-25.38-36.62-7.7319-79.023-8.6608-115.34-2.5267-97.251 16.426-178.6 76.543-219.47 162.19-16.507 34.59-24.782 68.918-26.21 108.72-3.5239 98.272 47.47 192.18 133.89 246.58 14.368 9.0432 38.888 21.161 54.287 26.829 23.728 8.7326 51.358 15.275 74 17.522 6.05 0.6003 12.575 1.2727 14.5 1.4943 7.708 0.8872 47.23-0.3925 58.5-1.8942zm460.08 1.409c26.021-2.532 50.473-9.4422 73.924-20.891 23.208-11.33 40.351-23.804 58-42.202 22.226-23.17 36.464-49.245 42.676-78.156 2.8496-13.262 3.0446-38.151 0.4167-53.188-8.2492-47.203-37.316-85.666-85.593-113.26-21.137-12.083-42.563-20.158-98.5-37.125-28.057-8.5102-37.221-11.816-49.428-17.832-11.809-5.8193-20.888-14.238-23.409-21.708-4.6638-13.818 0.6845-34.029 12.004-45.363 16.457-16.479 45.368-18.442 83.178-5.6489 20.352 6.8861 48.586 21.613 73.058 38.106 6.8221 4.5979 12.515 8.2416 12.65 8.0971 2.3878-2.549 71.395-112.45 71.097-113.23-0.54-1.4072-32.411-19.488-48.151-27.317-39.613-19.703-75.388-29.935-120-34.321-20.343-2-63.475-1.7685-77.5 0.41591-24.628 3.8359-44.545 9.8979-64.5 19.632-48.098 23.462-79.261 61.559-90.028 110.06-2.5623 11.542-3.1419 43.506-1.0478 57.785 5.9531 40.594 24.442 69.238 60.117 93.137 24.891 16.675 53.673 28.671 119.99 50.012 31.934 10.276 45.884 16.908 56.582 26.899 4.1018 3.8306 8.6695 9.191 10.15 11.912 4.0385 7.4202 6.0308 17.255 5.4539 26.924-2.3106 38.725-49.234 53.446-106.22 33.323-27.954-9.8712-58.352-29.82-81.43-53.439l-9.4296-9.6507-49.07 49.689c-26.989 27.329-49.232 50.112-49.43 50.629-0.5033 1.3139 3.7373 5.6402 15.36 15.671 43.05 37.153 95.557 62.07 156 74.029 34.806 6.8865 75.764 9.6748 103.08 7.0171zm-1194.6-219.44v-208.5h121.02l-0.2575-62.25-0.2576-62.25-60.25-0.25781-60.25-0.2578v-153.98h-146v154h-121v124.98l60.25 0.2578 60.25 0.25781 0.2524 208.25 0.2523 208.25h146zm-3517 124.5v-80.998l-227.08-0.2521-227.08-0.2522 240.58-328.67 240.58-328.67v-51.162h-713v163h200.5c110.28 0 200.5 0.24185 200.5 0.53744 0 0.2956-107.89 148.23-239.75 328.75l-239.75 328.21-0.28292 25.25-0.28293 25.25h765.07zm684-5.9998v-86.998l-201.25-0.2525-201.25-0.2524v-188l167.75-0.2529 167.75-0.2529v-173.99h-336.01l0.256-79.75 0.256-79.75 202.75-0.25242 202.75-0.25242v-174h-580v871h577zm506.25-261.25 0.2514-348.25 120.25-0.25403 120.25-0.25403v-173.99h-657v174h242v697h174zm1025.7 325-0.01-23.25-194.81-412-194.81-412-25.929-0.23665l-25.926-0.23665-209.75 412.28-209.75 412.28v46.417h861l-0.01-23.25zm-599.99-151.63c0-1.1238 178.58-351.11 179.68-352.15 0.6071-0.57131 154.18 325.28 164.53 349.1l1.709 3.9332h-172.96c-99.545 0-172.96-0.3753-172.96-0.8842zm834-261.62v-435.5h-159v871h159zm1396 166.49v-269.01l-79.25 0.25602-79.25 0.25602-0.2518 268.75-0.2519 268.75h159zm-2.1976-331.24c-1.3027-2.3375-18.98-34.062-39.283-70.5-20.303-36.438-37.17-66.25-37.483-66.25-0.4434 0-37.33 65.713-75.32 134.18l-3.784 6.8197h158.24z" fill="#313431"/>
 <path d="m5.2012e-8 958.5v-958.5h6771v1917h-6771zm4275.7 361.04c132.14-254.08 240.25-462.09 240.25-462.25 0-0.16127-39.272-0.29321-87.271-0.29321h-87.271l-80.979 146.64c-44.538 80.654-81.429 147.25-81.979 148-0.745 1.0081-23.407-36.379-88.887-146.64l-87.887-148h-179.75l2.9221 5.75c1.6071 3.1625 60.321 116.17 130.48 251.13l127.55 245.38-110.47 209.83c-60.761 115.4-110.74 210.52-111.07 211.38-0.5354 1.3954 8.1763 1.5255 86.764 1.2956l87.359-0.2555zm1285.2 87.403c24.454-2.2257 50.214-7.706 73.283-15.59 13.443-4.5945 36.413-14.413 45.717-19.541 11.779-6.4924 30.998-18.316 30.755-18.922-1.5279-3.8153-69.481-123.88-70.115-123.89-0.4729 0-3.3373 2.2574-6.3654 5.0249-16.615 15.185-37.842 26.134-61.55 31.747-10.208 2.4168-13.037 2.6568-31.225 2.6477-22.11-0.011-31.415-1.4248-49.749-7.5588-46.435-15.536-84.688-52.346-98.585-94.867-5.7357-17.55-7.7047-42.72-4.8112-61.5 6.2312-40.443 28.126-73.65 63.924-96.949 23.904-15.559 51.537-24.086 81.722-25.218 39.111-1.4674 72.807 10.422 99.795 35.211 4.0121 3.6853 7.4313 6.5332 7.5981 6.3287 1.092-1.3389 71.606-126.06 71.6-126.64 0-0.40033-4.6165-3.6968-10.25-7.3256-38.809-24.998-77.857-39.777-124.73-47.209-11.678-1.8515-17.654-2.1402-44.013-2.1261-26.145 0.014-32.43 0.31995-44.013 2.1424-56.402 8.8744-104.35 29.508-146.99 63.255-12.372 9.7918-34.766 32.012-44.38 44.036-33.52 41.922-54.049 91.047-60.176 144-1.9962 17.254-1.506 51.214 0.9787 67.804 9.1245 60.923 36.453 115.09 80.067 158.71 47.652 47.652 112.53 78.424 181.01 85.856 15.837 1.7188 44.924 1.9975 60.5 0.5798zm485-1.3764c81.93-14.1 146.27-70.059 161.63-140.57 2.5372-11.648 2.559-40.57 0.04-53.5-4.3362-22.261-14.557-45.816-27.196-62.678-20.566-27.437-53.019-50.501-92.975-66.078-4.95-1.9297-20.025-6.9687-33.5-11.198-57.819-18.146-68.06-21.658-78.712-26.99-22.739-11.383-29.638-23.721-24.783-44.316 7.16-30.368 34.8-42.897 75.284-34.126 27.528 5.9642 63.563 23.082 96.049 45.627 5.1365 3.5647 9.6923 6.0938 10.124 5.6203 0.6596-0.7236 69.454-108.7 71.333-111.96 0.7791-1.3519-27.29-17.604-49.087-28.421-37.728-18.724-71.9-28.919-112.71-33.629-21.77-2.5122-70.708-2.5449-86.163-0.0576-56.809 9.1434-103.49 36.521-130.59 76.591-6.7475 9.977-16.098 29.666-19.175 40.377-7.3023 25.416-8.2528 54.771-2.6143 80.736 7.0975 32.684 24.803 59.305 52.632 79.135 24.609 17.535 56.03 31.468 108.91 48.291 41.607 13.238 55.305 18.771 67.014 27.074 16.775 11.894 24.612 29.064 21.738 47.628-2.8601 18.478-15.191 30.922-36.252 36.587-10.077 2.7103-33.341 2.4173-46.975-0.5916-37.199-8.2098-71.16-27.452-101.5-57.512l-12.001-11.89-49.722 50.39c-27.347 27.714-49.627 50.637-49.511 50.94 0.1157 0.303 4.2604 4.3052 9.2104 8.8936 50.457 46.771 121.85 77.597 198.02 85.499 22.77 2.3622 22.364 2.3449 47.984 2.0438 16.5-0.194 26.969-0.7931 33.5-1.9171zm-1208-217.56v-207.99l60.25-0.2578 60.25-0.25781 0.2575-62.75 0.2575-62.75h-121.02v-154h-147v154h-120v126h120v416h147zm-3517 123.99v-80.998l-226.92-0.2521-226.92-0.2522 240.42-328.45 240.42-328.45v-51.593h-714v163l201.05 0.25244 201.05 0.25244-240.05 328.8-240.05 328.8v49.894h765zm684-6.5022v-87.5h-402v-187h335v-175h-335v-159l202.75-0.25242 202.75-0.25242 0.2555-87.25 0.2555-87.25h-581.01v871h577zm507-260.5v-348h240v-175h-657v175h242v696h175zm1025 324.52v-23.475l-194.75-412-194.75-412-26.042-0.0211-26.042-0.0211-209.71 412.03-209.71 412.03v46.947h861zm-578.29-194.32c82.126-161.25 157.87-309.2 158.3-309.21 0.4072-2e-3 163.69 347.74 164.83 351.03 0.2132 0.6166-61.909 0.9643-172.29 0.9643h-172.63zm812.29-218.71v-435.5h-159v871h159zm1396 166.5v-269h-159v538h159zm0-327.29c0-0.16012-17.739-32.149-39.421-71.086-37.851-67.976-39.479-70.702-40.88-68.459-1.3615 2.1799-73.99 132.66-76.585 137.59l-1.1849 2.25h79.035c43.469 0 79.035-0.13101 79.035-0.29114z"/>
</svg>
