<?xml version="1.0" encoding="UTF-8"?>
<!-- Created with Inkscape (http://www.inkscape.org/) -->
<svg width="280" height="80" version="1.1" viewBox="0 0 280 80" xmlns="http://www.w3.org/2000/svg" xmlns:cc="http://creativecommons.org/ns#" xmlns:dc="http://purl.org/dc/elements/1.1/" xmlns:rdf="http://www.w3.org/1999/02/22-rdf-syntax-ns#">
 <metadata>
  <rdf:RDF>
   <cc:Work rdf:about="">
    <dc:format>image/svg+xml</dc:format>
    <dc:type rdf:resource="http://purl.org/dc/dcmitype/StillImage"/>
    <dc:title/>
   </cc:Work>
  </rdf:RDF>
 </metadata>
 <g stroke-width="1.3333">
  <path d="m0 39.72v-40h280v80h-280z" fill="#fefefe"/>
  <path d="m161.33 75.577c0-0.81193 2.1956-5.4911 4.8792-10.398l4.8792-8.9218-6.0118-11.58c-3.3065-6.3692-5.7021-11.89-5.3236-12.269 0.37851-0.37851 2.3884-0.68821 4.4664-0.68821 3.1532 0 4.3846 1.0996 7.4444 6.6475 2.0165 3.6561 3.9663 6.6544 4.333 6.6628 0.36667 0.0084 2.1667-2.8329 4-6.3141 2.804-5.3244 4.0214-6.3958 7.6667-6.7473 2.3833-0.2298 4.3333-0.01384 4.3333 0.47991 0 0.49375-5.1434 10.732-11.43 22.751-10.811 20.67-11.641 21.853-15.333 21.853-2.1469 0-3.9034-0.6643-3.9034-1.4762zm-158.67-19.079c0-1.0389 0.48412-2.0889 1.0758-2.3333 0.5917-0.24444 5.714-6.7444 11.383-14.444l10.307-14-8.9886-0.66667c-9.6394-0.71494-9.4584-0.51796-8.5769-9.3333 0.081368-0.81368 6.8889-1.3333 17.467-1.3333 14.898 0 17.333 0.29553 17.333 2.1037 0 1.1571-5.078 8.9322-11.284 17.278l-11.284 15.174 10.284 0.38854 10.284 0.38854 0.41781 4.3333 0.41781 4.3333h-19.418c-15.864 0-19.418-0.34573-19.418-1.8889zm42.667-20.111v-22h28v10.667h-9.3333c-9.0667 0-9.3333 0.09524-9.3333 3.3333 0 3.1852 0.35556 3.3333 8 3.3333h8v9.3333h-16v8h18.667v9.3333h-28zm42.667 5.41v-16.59l-5.5465-0.41c-4.3496-0.32153-5.635-0.98542-5.9565-3.0767-1.0647-6.9243-0.12047-7.3333 16.926-7.3333h15.91v10.667h-12v33.333h-9.3333zm15.916 15.59c-0.20155-2.392 20.914-42.792 22.418-42.891 0.91667-0.060168 1.6667 0.55526 1.6667 1.3676 0 0.81236 3.9 9.7477 8.6667 19.856 4.7667 10.109 8.6667 19.344 8.6667 20.523 0 1.8772-2.5695 2.1437-20.667 2.1437-11.367 0-20.705-0.45-20.751-1zm28.002-9.3333c-0.045-0.55-1.4469-4-3.1154-7.6667l-3.0336-6.6667-3.5513 6.9557c-1.9532 3.8256-3.5513 7.2756-3.5513 7.6667 0 0.39105 3 0.71099 6.6667 0.71099 3.6667 0 6.6298-0.45 6.5848-1zm17.415-11.578v-22.089h8.0661l-0.36636 21.667-0.36636 21.667-3.6667 0.4219-3.6667 0.4219zm50.667 12c0-9.1997-0.23496-10.089-2.6667-10.089-1.9556 0-2.6667-0.88889-2.6667-3.3333s0.7111-3.3333 2.6667-3.3333 2.6667-0.88889 2.6667-3.3333c0-2.8425 0.61185-3.3333 4.1554-3.3333 3.7135 0 4.0877 0.35451 3.5182 3.3333-0.53418 2.7944-0.12814 3.3333 2.5112 3.3333 4.3094 0 4.5795 6.2673 0.29772 6.9073-2.5828 0.38604-2.8647 1.303-3 9.7594-0.14632 9.1484-0.22193 9.3417-3.8159 9.7552l-3.6667 0.4219zm15.268 8.2226c-0.39412-1.0271-0.54071-6.9173-0.32575-13.089l0.39084-11.222h7.5652l8e-3 12.667c8e-3 12.645 3e-3 12.667-3.4569 13.089-2.0618 0.25146-3.7555-0.33368-4.1819-1.4448zm17.021-0.39211c-4.3399-3.0398-7.3326-9.5591-6.3024-13.729 0.47864-1.9377 2.4397-5.1731 4.358-7.1897 2.8192-2.9638 4.6539-3.6628 9.5716-3.6462 8.196 0.02751 10.237 1.3663 7.8734 5.1641-1.3712 2.2031-2.6264 2.6921-5.3694 2.0918-2.5738-0.56326-4.3536-0.0096-6.3333 1.9701-1.5144 1.5144-2.7535 3.3535-2.7535 4.0869 0 0.73333 1.2391 2.5724 2.7535 4.0869 1.9798 1.9798 3.7595 2.5334 6.3333 1.9701 2.7429-0.60027 3.9982-0.11125 5.3694 2.0918 1.4972 2.4055 1.4972 3.0605 0 4.0095-2.9497 1.8695-12.32 1.3219-15.501-0.90588zm21.165-0.21971-2.9988-2.4283 2.8038-2.5374c2.1494-1.9452 3.1698-2.1713 4.3723-0.96888 1.9034 1.9034 6.3685 2.0809 6.3685 0.25306 0-0.72349-2.0517-2.1727-4.5594-3.2205-4.2831-1.7896-7.4406-5.4857-7.4406-8.7098 0-0.78154 1.2-2.621 2.6667-4.0877 5.3361-5.3361 20.639-2.2565 16.081 3.2361-1.0671 1.2857-3.0657 1.6615-6.1633 1.1589-5.9032-0.95797-5.8753 0.53492 0.0564 3.0133 2.5523 1.0664 5.6438 3.4701 6.87 5.3416 2.1108 3.2214 2.0872 3.594-0.44132 6.993-3.4546 4.644-12.988 5.7028-17.615 1.9564zm-37.829-26.519c-0.45072-0.45072 0.15125-2.301 1.3377-4.1118l2.1572-3.2923 1.7262 3.1118c0.94939 1.7115 1.7474 3.5618 1.7734 4.1118 0.0565 1.1976-5.8256 1.3494-6.9945 0.18051z" fill="#aed8c9"/>
  <path d="m161.33 76.133c0-0.50641 2.25-5.323 5-10.703l5-9.7827-5.6667-10.521c-3.1167-5.7864-5.6667-11.049-5.6667-11.696 0-0.64616 1.9783-0.94388 4.3963-0.6616 3.621 0.42273 4.9469 1.5511 7.5186 6.3989 1.7173 3.2371 3.5015 5.8857 3.9649 5.8857s2.3175-2.7 4.1202-6c2.8768-5.2662 3.8243-6 7.7476-6h4.4699l-2.5894 4.3333c-1.4242 2.3833-6.684 12.283-11.688 22-8.4098 16.328-9.3835 17.667-12.853 17.667-2.0645 0-3.7536-0.41434-3.7536-0.92075zm-156.95-18.593c-1.0164-0.42434 2.5743-6.3395 9.6667-15.925 6.206-8.3873 11.284-15.545 11.284-15.905 0-0.36074-3.9-0.65589-8.6667-0.65589h-8.6667v-10.667h16.524c13.217 0 16.673 0.38754 17.267 1.9365 0.43786 1.141-3.8852 8.2454-10.524 17.295-6.1969 8.4472-11.268 15.526-11.269 15.73-0.0012 0.20443 4.6488 0.3717 10.333 0.3717h10.336v8l-17.333 0.24721c-9.5333 0.13597-18.061-0.056584-18.95-0.42789zm40.95-21.106v-22.047h28v10.667h-9.1779c-8.6872 0-9.2114 0.17509-9.8039 3.2748-0.6034 3.1565-0.33206 3.289 7.5112 3.6667 8.0654 0.38841 8.1372 0.42718 8.1372 4.3919 0 3.9343-0.12589 4.0066-7.6667 4.3999-7.5104 0.39172-7.6667 0.48002-7.6667 4.3333v3.9335h18.836l-0.41781 4.3333-0.41781 4.3333-13.667 0.37998-13.667 0.37998zm43.617 21.126c-0.52256-0.52256-0.9501-8.0501-0.9501-16.728v-15.778h-10.667v-10.667h15.308c15.213 0 15.313 0.02069 16.144 3.3304 1.3764 5.4842-0.14731 7.3363-6.0355 7.3363h-5.3341l-0.37437 16.333-0.37437 16.333-3.3832 0.39455c-1.8608 0.217-3.8108-0.033-4.3333-0.55556zm15.896-0.21487c-0.35438-0.5734 4.2183-10.623 10.162-22.333l10.806-21.291 9.8401 20.496c5.4121 11.273 9.5228 21.323 9.135 22.333-0.55417 1.4442-4.837 1.8376-20.002 1.8376-10.613 0-19.586-0.46915-19.941-1.0425zm24.861-15.624c-1.9781-4.0333-3.9216-7.3173-4.3188-7.2977-0.39723 0.01961-2.3824 3.3196-4.4115 7.3333l-3.6892 7.2977h16.016zm100.86 12.769c-8.4052-8.4052-2.712-22.796 9-22.749 6.6226 0.02649 8.9637 1.5494 7.8374 5.0982-0.72063 2.2705-1.6157 2.6385-4.8455 1.9926-4.431-0.88621-9.2226 2.3465-9.2226 6.2221s4.7916 7.1084 9.2226 6.2221c3.2299-0.64597 4.1249-0.27792 4.8455 1.9926 1.1264 3.5488-1.2148 5.0717-7.8374 5.0982-3.8783 0.01552-6.0377-0.91473-9-3.877zm23.655 1.7417c-3.6018-1.952-3.673-2.168-1.5048-4.5638 2.0058-2.2164 2.6919-2.3051 5.7807-0.74727 3.5642 1.7976 6.8381 1.519 6.8381-0.58192 0-0.63791-2.7-2.3542-6-3.8139-5.1225-2.2659-6-3.2198-6-6.5224 0-2.1276 1.0972-4.8613 2.4383-6.075 2.885-2.6109 10.763-2.9055 14.019-0.52429 1.9842 1.4509 2.0506 2.0245 0.48263 4.1688-1.545 2.113-2.2744 2.2423-4.8557 0.86079-2.387-1.2775-3.3639-1.2779-4.5611-0.0021-0.96088 1.024-1.0311 1.809-0.19018 2.1257 7.7208 2.908 10.692 5.4214 11.075 9.3697 0.72909 7.51-8.9038 10.977-17.522 6.3057zm-104.89-20.511v-21.333h3.1907c1.7549 0 3.5549 0.94907 4 2.109 0.44514 1.16 0.80932 10.76 0.80932 21.333v19.224h-8zm50.667 12c0-8.4444-0.25397-9.3333-2.6667-9.3333-1.7778 0-2.6667-0.88889-2.6667-2.6667s0.88889-2.6667 2.6667-2.6667c2.0741 0 2.6667-0.88889 2.6667-4 0-3.3487 0.52836-4 3.2448-4 2.5486 0 3.3353 0.78671 3.6667 3.6667 0.30335 2.6364 1.1712 3.6672 3.0886 3.6684 3.8923 0.0025 3.5914 5.2002-0.33333 5.7576-2.7816 0.39504-3 1.099-3 9.6667 0 8.9677-0.0984 9.2406-3.3333 9.2406-3.2381 0-3.3333-0.26667-3.3333-9.3333zm15.333-2.6696v-11.999l3.6667 9.76e-4 3.6667 9.74e-4v24l-3.6667-2e-3 -3.6667-2e-3v-11.999zm0.66762-16.834c-5.2e-4 -0.82687 0.85721-2.2156 1.9061-3.0861 1.5229-1.2639 2.1943-1.0458 3.3333 1.0824 1.9787 3.6973 1.8655 3.917-1.9061 3.6994-1.8328-0.10576-3.3328-0.86882-3.3333-1.6957z" fill="#8fc9b4"/>
  <path d="m166.34 66.012 5.3411-9.902-5.835-11.195c-3.2092-6.1573-5.837-11.345-5.8396-11.528-3e-3 -0.18333 1.8102-0.33333 4.0282-0.33333 3.3538 0 4.643 1.0102 7.657 6 1.9933 3.3 3.9951 6 4.4486 6 0.45342 0 2.2568-2.7 4.0074-6 2.7392-5.1635 3.7673-6 7.374-6h4.191l-11.064 21c-10.515 19.958-11.277 21.021-15.357 21.43l-4.2929 0.43035zm-161.96-8.4727c-1.0164-0.42434 2.5743-6.3395 9.6667-15.925 6.206-8.3873 11.284-15.545 11.284-15.905 0-0.36074-3.9-0.65589-8.6667-0.65589h-8.6667v-10.667h16.524c13.217 0 16.673 0.38754 17.267 1.9365 0.43786 1.141-3.8852 8.2454-10.524 17.295-6.1969 8.4472-11.267 15.623-11.267 15.946 0 0.32322 4.65 0.57301 10.333 0.55509l10.333-0.03257v7.6332l-17.333 0.24721c-9.5333 0.13597-18.061-0.056582-18.95-0.42789zm40.95-21.106v-22.047h28v10.667h-9.1779c-8.6872 0-9.2114 0.17509-9.8039 3.2748-0.60294 3.1541-0.32828 3.2892 7.4493 3.6667 7.9966 0.38805 8.0753 0.43086 8.0753 4.3919 0 3.9585-0.08327 4.004-8.032 4.3907l-8.032 0.39074 0.57865 3.9426c0.57742 3.9342 0.59838 3.9426 9.8451 3.9426h9.2665l-0.41781 4.3333-0.41781 4.3333-13.667 0.37998-13.667 0.37998zm43.617 21.126c-0.52256-0.52256-0.9501-8.0501-0.9501-16.728v-15.778h-10.667v-10.667h15.308c15.213 0 15.313 0.02069 16.144 3.3304 1.3764 5.4842-0.14731 7.3363-6.0355 7.3363h-5.3341l-0.37437 16.333-0.37437 16.333-3.3832 0.39455c-1.8608 0.217-3.8108-0.033-4.3333-0.55556zm15.896-0.21487c-0.35438-0.5734 4.2183-10.623 10.162-22.333l10.806-21.291 9.8401 20.496c5.4121 11.273 9.5228 21.323 9.135 22.333-0.55417 1.4442-4.837 1.8376-20.002 1.8376-10.613 0-19.586-0.46915-19.941-1.0425zm24.861-15.624c-1.9781-4.0333-3.9466-7.3333-4.3744-7.3333s-2.3963 3.3-4.3744 7.3333l-3.5966 7.3333h15.942zm104.29 15.192c-7.6968-4.4443-9.7395-14.246-4.2893-20.583 2.2148-2.5749 4.6663-3.7005 9-4.1322 7.1034-0.70762 9.917 0.77772 8.7052 4.5956-0.7132 2.2471-1.6558 2.6119-5.244 2.0297-3.0474-0.49453-5.0516-0.03277-6.6065 1.5222-4.8276 4.8276-0.95225 11.857 6.1324 11.123 3.8964-0.40347 8.0126 2.9855 6.0319 4.9662-1.6592 1.6592-11.114 1.9881-13.73 0.47757zm20.808-0.59423c-4.3706-1.897-4.4453-2.0524-2.1862-4.5488 2.1617-2.3887 2.5798-2.4269 5.5149-0.50375 3.1964 2.0944 7.1964 1.6637 7.1964-0.77474 0-0.72203-2.7-2.5071-6-3.9669-5.209-2.3042-6-3.1872-6-6.6983 0-5.4812 4.9231-8.7376 11.577-7.6577 6.1581 0.99932 7.3699 2.2622 5.1088 5.3241-1.4993 2.0302-2.29 2.177-4.72 0.87648-2.2506-1.2045-3.268-1.1905-4.4426 0.06127-0.96088 1.024-1.0311 1.809-0.19018 2.1257 7.7208 2.908 10.692 5.4214 11.075 9.3697 0.72925 7.5116-7.3386 10.557-16.933 6.3929zm-105.47-19.931v-20.667h6.5363l0.39853 20.669 0.39854 20.669-3.6667-0.0019-3.6667-2e-3zm51.776 11.336c0.43928-9.2633 0.41582-9.3363-3-9.3363-4.5232 0-4.9155-4.9387-0.44274-5.5739 2.1904-0.31109 3.0056-1.3256 3.0206-3.7594 0.0148-2.3922 0.83461-3.4501 2.9037-3.7468 2.2836-0.32748 2.9724 0.35464 3.3127 3.2806 0.27384 2.3545 1.4041 3.9549 3.1169 4.4134 3.6303 0.97183 3.3797 4.6152-0.35398 5.1455-2.7816 0.39504-3 1.099-3 9.6667 0 8.6931-0.17776 9.2408-3 9.2436-2.8679 0.0029-2.9805-0.40819-2.5573-9.3333zm14.891-2.6697c0-11.911 0.0247-12 3.3333-12 3.3086 0 3.3333 0.08889 3.3333 12 0 11.911-0.0247 12-3.3333 12s-3.3333-0.08889-3.3333-12zm1.3944-18.781c0.81855-1.5295 1.6094-2.5795 1.7575-2.3333 0.14809 0.24614 1.0729 1.4975 2.0552 2.7809 1.5958 2.0849 1.4087 2.3333-1.7575 2.3333-3.1788 0-3.3904-0.28618-2.0552-2.7809z" fill="#979797"/>
  <path d="m166.34 66.012 5.3411-9.902-5.835-11.195c-3.2092-6.1573-5.837-11.345-5.8396-11.528-3e-3 -0.18333 1.8102-0.33333 4.0282-0.33333 3.3538 0 4.643 1.0102 7.657 6 1.9933 3.3 3.9951 6 4.4486 6 0.45342 0 2.2568-2.7 4.0074-6 2.7392-5.1635 3.7673-6 7.374-6h4.191l-11.064 21c-10.515 19.958-11.277 21.021-15.357 21.43l-4.2929 0.43035zm67.662-9.0997c-7.6968-4.4443-9.7395-14.246-4.2893-20.583 2.2148-2.5749 4.6663-3.7005 9-4.1322 7.1034-0.70762 9.917 0.77772 8.7052 4.5956-0.7132 2.2471-1.6558 2.6119-5.244 2.0297-3.0474-0.49453-5.0516-0.03277-6.6065 1.5222-4.8276 4.8276-0.95225 11.857 6.1324 11.123 3.8964-0.40347 8.0126 2.9855 6.0319 4.9662-1.6592 1.6592-11.114 1.9881-13.73 0.47757zm20.808-0.59423c-4.3706-1.897-4.4453-2.0524-2.1862-4.5488 2.1617-2.3887 2.5798-2.4269 5.5149-0.50375 3.1964 2.0944 7.1964 1.6637 7.1964-0.77474 0-0.72203-2.7-2.5071-6-3.9669-5.209-2.3042-6-3.1872-6-6.6983 0-5.4812 4.9231-8.7376 11.577-7.6577 6.1581 0.99932 7.3699 2.2622 5.1088 5.3241-1.4993 2.0302-2.29 2.177-4.72 0.87648-2.2506-1.2045-3.268-1.1905-4.4426 0.06127-0.96088 1.024-1.0311 1.809-0.19018 2.1257 7.7208 2.908 10.692 5.4214 11.075 9.3697 0.72925 7.5116-7.3386 10.557-16.933 6.3929zm-249.54-1.8172c0.7513-1.4038 5.8724-8.6076 11.38-16.008 5.5078-7.4008 10.014-13.752 10.014-14.114 0-0.36208-4.2-0.65834-9.3333-0.65834h-9.3333v-8h16.667c13.857 0 16.667 0.33404 16.667 1.9816 0 1.0899-4.7981 8.4399-10.662 16.333s-10.664 14.802-10.667 15.352c-0.0023 0.55 4.4958 1 9.9958 1 9.7778 0 10 0.07408 10 3.3333v3.3333h-18.047c-17.364 0-17.995-0.09653-16.681-2.5524zm40.36-17.781 0.36806-20.333h26.667l0.41781 4.3333 0.41781 4.3333h-20.346l0.4219 3.599c0.40945 3.4928 0.6481 3.5883 8.0886 3.2367l7.6667-0.36228v9.5267h-8c-7.9737 0-8 0.01293-8 3.9416v3.9416l9.6667 0.39174c9.4433 0.38269 9.6764 0.47649 10.089 4.0584l0.4219 3.6667h-28.247zm43.701 4.3333v-16h-6c-5.9683 0-6-0.02469-6-4.6667v-4.6667h30.667v4.6667c0 4.5556-0.12699 4.6667-5.3333 4.6667h-5.3333v32h-8zm25.461-5.3413c6.0321-11.738 11.118-21.188 11.302-21 0.66744 0.68188 19.237 40.8 19.237 41.56 0 0.42995-9.3389 0.78173-20.753 0.78173h-20.753zm15.009 5.6746c-1.8608-4.2167-3.5885-7.8774-3.8393-8.1349-0.25083-0.25754-2.304 3.1925-4.5626 7.6667l-4.1065 8.1349h15.892zm19.53-5v-20.667h6.5363l0.39853 20.669 0.39854 20.669-3.6667-0.0019-3.6667-2e-3zm51.776 11.336c0.43928-9.2633 0.41582-9.3363-3-9.3363-4.5232 0-4.9155-4.9387-0.44274-5.5739 2.1904-0.31109 3.0056-1.3256 3.0206-3.7594 0.0148-2.3922 0.83461-3.4501 2.9037-3.7468 2.2836-0.32748 2.9724 0.35464 3.3127 3.2806 0.27384 2.3545 1.4041 3.9549 3.1169 4.4134 3.6303 0.97183 3.3797 4.6152-0.35398 5.1455-2.7816 0.39504-3 1.099-3 9.6667 0 8.6931-0.17776 9.2408-3 9.2436-2.8679 0.0029-2.9805-0.40819-2.5573-9.3333zm14.891-2.6697c0-11.911 0.0247-12 3.3333-12 3.3086 0 3.3333 0.08889 3.3333 12 0 11.911-0.0247 12-3.3333 12s-3.3333-0.08889-3.3333-12zm1.3944-18.781c0.81855-1.5295 1.6094-2.5795 1.7575-2.3333 0.14809 0.24614 1.0729 1.4975 2.0552 2.7809 1.5958 2.0849 1.4087 2.3333-1.7575 2.3333-3.1788 0-3.3904-0.28618-2.0552-2.7809z" fill="#64b597"/>
  <path d="m166.88 65.789 5.2039-9.931-6.1652-11.402-6.1652-11.402h4.0441c3.4646 0 4.5804 0.955 7.7876 6.6653 2.059 3.6659 4.0436 6.6573 4.4102 6.6475 0.36667-0.0099 2.3165-3.0092 4.333-6.6653 2.8814-5.2244 4.38-6.6475 7-6.6475 1.8335 0 3.3337 0.23002 3.3337 0.51116 0 0.28114-4.8776 9.8811-10.839 21.333-9.98 19.172-11.129 20.822-14.493 20.822h-3.6539zm69.494-8.3374c-3.9106-0.75692-9.7122-7.7885-9.7122-11.771 0-5.2339 2.7792-9.71 7.3862-11.896 5.1004-2.4203 7.8223-2.5817 11.385-0.67494 2.0921 1.1197 2.323 1.8993 1.1897 4.017-1.0715 2.0022-1.9685 2.3268-3.7681 1.3636-4.1845-2.2395-8.8596 1.2239-8.8596 6.5634 0 5.3395 4.675 8.8029 8.8596 6.5634 1.8069-0.96704 2.7008-0.63057 3.8048 1.4322 1.2358 2.3091 0.94419 2.8859-2.0308 4.017-1.9106 0.7264-3.8847 1.239-4.387 1.1392-0.50225-0.09987-2.2427-0.43891-3.8677-0.75344zm21.353-0.53968c-5.1831-1.4989-6.325-3.0403-3.8029-5.1334 1.4381-1.1935 2.5946-1.2053 4.7562-0.0484 3.285 1.7581 7.1275 0.76259 6.3269-1.6391-0.29838-0.89516-2.8983-2.85-5.7775-4.3442-4.311-2.2371-5.235-3.4174-5.235-6.6871 0-5.6133 5.5966-8.2822 12.826-6.1164 4.5887 1.3748 4.9688 1.8087 3.5601 4.0644-1.1726 1.8776-2.1712 2.2073-3.8937 1.2854-3.4679-1.856-6.492-1.4968-6.492 0.77095 0 1.1059 2.4055 2.9733 5.3455 4.1496 7.1927 2.8779 8.562 7.6698 3.4487 12.068-3.9168 3.3691-4.6667 3.4796-11.062 1.6301zm-252.46-2.411c0.7513-1.4038 5.8724-8.6076 11.38-16.008 5.5078-7.4008 10.014-13.752 10.014-14.114 0-0.36208-4.2-0.65834-9.3333-0.65834h-9.3333v-8h16.667c13.857 0 16.667 0.33404 16.667 1.9816 0 1.0899-4.7981 8.4399-10.662 16.333s-10.664 14.802-10.667 15.352c-0.0023 0.55 4.4958 1 9.9958 1 9.7778 0 10 0.07408 10 3.3333v3.3333h-18.047c-17.364 0-17.995-0.09653-16.681-2.5524zm40.36-17.781 0.36806-20.333h26.667l0.41781 4.3333 0.41781 4.3333h-20.346l0.4219 3.599c0.40945 3.4928 0.6481 3.5883 8.0886 3.2367l7.6667-0.36228v9.5267h-8c-7.9737 0-8 0.01293-8 3.9416v3.9416l9.6667 0.39174c9.4433 0.38269 9.6764 0.47649 10.089 4.0584l0.4219 3.6667h-28.247zm43.701 4.3333v-16h-6c-5.9683 0-6-0.02469-6-4.6667v-4.6667h30.667v4.6667c0 4.5556-0.12699 4.6667-5.3333 4.6667h-5.3333v32h-8zm25.461-5.3413c6.0321-11.738 11.118-21.188 11.302-21 0.66744 0.68188 19.237 40.8 19.237 41.56 0 0.42995-9.3389 0.78173-20.753 0.78173h-20.753zm15.009 5.6746c-1.8608-4.2167-3.5885-7.8774-3.8393-8.1349-0.25083-0.25754-2.304 3.1925-4.5626 7.6667l-4.1065 8.1349h15.892zm19.53-4.3333v-20h6.6667v40h-6.6667zm51.725 10.333c-0.35948-8.8704-0.63888-9.7018-3.3917-10.093-4.1581-0.59055-3.8712-4.2406 0.33333-4.2406 2.8148 0 3.3333-0.62222 3.3333-4 0-3.1111 0.59259-4 2.6667-4s2.6667 0.88889 2.6667 4c0 3.1111 0.59258 4 2.6667 4 1.4667 0 2.6667 0.83002 2.6667 1.8445s-1.2 2.1583-2.6667 2.5418c-2.3505 0.61467-2.6667 1.8187-2.6667 10.156 0 8.4987-0.2646 9.4582-2.6083 9.4582-2.3129 0-2.6526-1.0946-3-9.6667zm14.942-2.3333c0-11.911 0.0247-12 3.3333-12 3.3086 0 3.3333 0.08889 3.3333 12 0 11.911-0.0247 12-3.3333 12s-3.3333-0.08889-3.3333-12zm1.3944-18.781c0.81855-1.5295 1.6094-2.5795 1.7575-2.3333 0.14809 0.24614 1.0729 1.4975 2.0552 2.7809 1.5958 2.0849 1.4087 2.3333-1.7575 2.3333-3.1788 0-3.3904-0.28618-2.0552-2.7809z" fill="#5b5b5b"/>
  <path d="m166.88 65.789 5.2039-9.931-6.1652-11.402-6.1652-11.402h4.0441c3.4646 0 4.5804 0.955 7.7876 6.6653 2.059 3.6659 4.0436 6.6573 4.4102 6.6475 0.36667-0.0099 2.3165-3.0092 4.333-6.6653 2.8814-5.2244 4.38-6.6475 7-6.6475 1.8335 0 3.3337 0.23002 3.3337 0.51116 0 0.28114-4.8776 9.8811-10.839 21.333-9.98 19.172-11.129 20.822-14.493 20.822h-3.6539zm69.494-8.3374c-3.9106-0.75692-9.7122-7.7885-9.7122-11.771 0-5.2339 2.7792-9.71 7.3862-11.896 5.1004-2.4203 7.8223-2.5817 11.385-0.67494 2.0921 1.1197 2.323 1.8993 1.1897 4.017-1.0715 2.0022-1.9685 2.3268-3.7681 1.3636-4.1845-2.2395-8.8596 1.2239-8.8596 6.5634 0 5.3395 4.675 8.8029 8.8596 6.5634 1.8069-0.96704 2.7008-0.63057 3.8048 1.4322 1.2358 2.3091 0.94419 2.8859-2.0308 4.017-1.9106 0.7264-3.8847 1.239-4.387 1.1392-0.50225-0.09987-2.2427-0.43891-3.8677-0.75344zm21.353-0.53968c-5.1831-1.4989-6.325-3.0403-3.8029-5.1334 1.4381-1.1935 2.5946-1.2053 4.7562-0.0484 3.285 1.7581 7.1275 0.76259 6.3269-1.6391-0.29838-0.89516-2.8983-2.85-5.7775-4.3442-4.311-2.2371-5.235-3.4174-5.235-6.6871 0-5.6133 5.5966-8.2822 12.826-6.1164 4.5887 1.3748 4.9688 1.8087 3.5601 4.0644-1.1726 1.8776-2.1712 2.2073-3.8937 1.2854-3.4679-1.856-6.492-1.4968-6.492 0.77095 0 1.1059 2.4055 2.9733 5.3455 4.1496 7.1927 2.8779 8.562 7.6698 3.4487 12.068-3.9168 3.3691-4.6667 3.4796-11.062 1.6301zm-252.4-1.1843c0-0.72911 4.8-7.8599 10.667-15.846 5.8667-7.9863 10.667-14.89 10.667-15.341 0-0.45124-4.2-0.82044-9.3333-0.82044-9.0667 0-9.3333-0.095239-9.3333-3.3333v-3.3333h16.667c9.1667 0 16.663 0.45 16.657 1-0.0051 0.55-5.123 7.9-11.373 16.333l-11.364 15.333 10.707 0.38726c10.38 0.37543 10.707 0.48742 10.707 3.6667v3.2794h-17.333c-10.6 0-17.333-0.51499-17.333-1.3257zm40.667-18.676v-20l13 8.6e-4c12.913 8.56e-4 13 0.02276 13 3.2733 0 3.1122-0.44066 3.2917-9 3.6667l-9 0.39425-0.41781 4.3333-0.41781 4.3333h8.0845c7.7346 0 8.0845 0.14428 8.0845 3.3333 0 3.1852-0.35556 3.3333-8 3.3333h-8v10.667h9.3333c9.0667 0 9.3333 0.09524 9.3333 3.3333 0 3.3277-0.02188 3.3333-13 3.332l-13-0.0013zm43.041 3.6688-0.37437-16.333-5.6667-0.41c-5.0081-0.36235-5.6667-0.78849-5.6667-3.6667v-3.2567h30.667v3.2567c0 2.8782-0.65859 3.3043-5.6667 3.6667l-5.6667 0.41-0.37437 16.333c-0.37409 16.321-0.37682 16.333-3.6256 16.333-3.2488 0-3.2515-0.01231-3.6256-16.333zm16.292 15.678c0-1.8089 19.444-39.345 20.381-39.345 0.88555 0 19.619 37.697 19.619 39.479 0 0.28662-9 0.52112-20 0.52112s-20-0.29471-20-0.6549zm28-7.3156c0-1.8657-7.0689-16.03-8-16.03-0.93112 0-8 14.164-8 16.03 0 0.71709 3.6 1.3038 8 1.3038s8-0.58671 8-1.3038zm16-12.03v-20h6.6667v40h-6.6667zm51.725 10.333c-0.35948-8.8704-0.63888-9.7018-3.3917-10.093-4.1581-0.59055-3.8712-4.2406 0.33333-4.2406 2.8148 0 3.3333-0.62222 3.3333-4 0-3.1111 0.59259-4 2.6667-4s2.6667 0.88889 2.6667 4c0 3.1111 0.59258 4 2.6667 4 1.4667 0 2.6667 0.83002 2.6667 1.8445s-1.2 2.1583-2.6667 2.5418c-2.3505 0.61467-2.6667 1.8187-2.6667 10.156 0 8.4987-0.2646 9.4582-2.6083 9.4582-2.3129 0-2.6526-1.0946-3-9.6667zm14.942-2.3333c0-11.911 0.0247-12 3.3333-12 3.3086 0 3.3333 0.08889 3.3333 12 0 11.911-0.0247 12-3.3333 12s-3.3333-0.08889-3.3333-12zm1.3944-18.781c0.81855-1.5295 1.6094-2.5795 1.7575-2.3333 0.14809 0.24614 1.0729 1.4975 2.0552 2.7809 1.5958 2.0849 1.4087 2.3333-1.7575 2.3333-3.1788 0-3.3904-0.28618-2.0552-2.7809z" fill="#0e8d5f"/>
  <path d="m5.3333 55.728c0-0.72911 4.8-7.8599 10.667-15.846 5.8667-7.9863 10.667-14.89 10.667-15.341 0-0.45124-4.2-0.82044-9.3333-0.82044-9.0667 0-9.3333-0.095239-9.3333-3.3333v-3.3333h16.667c9.1667 0 16.663 0.45 16.657 1-0.0051 0.55-5.123 7.9-11.373 16.333l-11.364 15.333 10.707 0.38726c10.38 0.37543 10.707 0.48742 10.707 3.6667v3.2794h-17.333c-10.6 0-17.333-0.51499-17.333-1.3257zm40.667-18.676v-20l13 8.6e-4c12.913 8.56e-4 13 0.02276 13 3.2733 0 3.1122-0.44066 3.2917-9 3.6667l-9 0.39425-0.41781 4.3333-0.41781 4.3333h8.0845c7.7346 0 8.0845 0.14428 8.0845 3.3333 0 3.1852-0.35556 3.3333-8 3.3333h-8v10.667h9.3333c9.0667 0 9.3333 0.09524 9.3333 3.3333 0 3.3277-0.02188 3.3333-13 3.332l-13-0.0013zm43.041 3.6688-0.37437-16.333-5.6667-0.41c-5.0081-0.36235-5.6667-0.78849-5.6667-3.6667v-3.2567h30.667v3.2567c0 2.8782-0.65859 3.3043-5.6667 3.6667l-5.6667 0.41-0.37437 16.333c-0.37409 16.321-0.37682 16.333-3.6256 16.333-3.2488 0-3.2515-0.01231-3.6256-16.333zm16.292 15.678c0-1.8089 19.444-39.345 20.381-39.345 0.88555 0 19.619 37.697 19.619 39.479 0 0.28662-9 0.52112-20 0.52112s-20-0.29471-20-0.6549zm28-7.3156c0-1.8657-7.0689-16.03-8-16.03-0.93112 0-8 14.164-8 16.03 0 0.71709 3.6 1.3038 8 1.3038s8-0.58671 8-1.3038z" fill="#020202"/>
 </g>
</svg>
